<?xml version="1.0" standalone="no"?>
<!DOCTYPE svg PUBLIC "-//W3C//DTD SVG 20010904//EN"
 "http://www.w3.org/TR/2001/REC-SVG-20010904/DTD/svg10.dtd">
<svg version="1.0" xmlns="http://www.w3.org/2000/svg"
 width="1200.000000pt" height="1200.000000pt" viewBox="0 0 1200.000000 1200.000000"
 preserveAspectRatio="xMidYMid meet">

<g transform="translate(0.000000,1200.000000) scale(0.100000,-0.100000)"
fill="#000000" stroke="none">
<path d="M2288 11989 c-310 -33 -591 -112 -863 -244 -790 -382 -1338 -1174
-1415 -2045 -8 -89 -10 -1166 -8 -3775 3 -3458 4 -3656 21 -3755 71 -415 194
-733 404 -1043 436 -645 1114 -1047 1884 -1117 90 -8 1134 -10 3769 -8 3999 4
3660 -1 3938 59 258 56 533 166 755 303 159 98 218 141 351 256 397 344 676
797 800 1301 77 314 70 -72 74 3984 2 2530 0 3670 -8 3763 -69 853 -540 1583
-1301 2019 -181 103 -473 212 -691 257 -264 55 57 50 -3953 52 -2024 1 -3715
-2 -3757 -7z m7367 -480 c322 -27 663 -147 940 -329 490 -323 800 -807 902
-1410 17 -99 18 -309 21 -3690 2 -2634 0 -3620 -8 -3718 -36 -417 -197 -815
-458 -1135 -87 -106 -275 -282 -383 -359 -239 -170 -539 -299 -820 -352 -194
-37 -275 -37 -3949 -34 -4008 5 -3640 -2 -3915 74 -157 44 -245 78 -388 151
-389 199 -700 511 -893 896 -124 247 -188 468 -214 742 -14 153 -14 7173 0
7316 35 344 145 656 330 937 149 228 364 441 593 590 258 168 619 295 914 321
146 12 7180 13 7328 0z"/>
<path d="M9582 10017 c-46 -14 -117 -80 -141 -130 -48 -99 -13 -235 77 -304
100 -76 249 -61 332 33 46 53 63 99 63 170 -1 136 -110 245 -242 243 -31 -1
-71 -6 -89 -12z"/>
<path d="M5785 9344 c-338 -26 -663 -95 -960 -205 -276 -101 -658 -316 -894
-502 -806 -637 -1281 -1599 -1281 -2597 0 -280 22 -491 76 -751 154 -737 584
-1430 1184 -1909 409 -327 909 -560 1420 -663 235 -48 384 -61 665 -61 366 0
603 32 937 128 335 96 619 229 923 431 198 131 337 246 510 420 518 517 843
1162 949 1880 71 479 24 1032 -126 1505 -93 291 -248 608 -429 876 -200 297
-524 625 -832 843 -442 313 -981 521 -1522 586 -124 15 -515 27 -620 19z m503
-489 c555 -58 1070 -268 1502 -613 129 -103 350 -325 449 -450 333 -422 532
-891 607 -1432 25 -176 25 -569 1 -735 -67 -455 -211 -837 -455 -1209 -200
-304 -500 -603 -817 -813 -492 -326 -1069 -489 -1665 -470 -351 12 -670 77
-979 203 -963 391 -1633 1252 -1777 2283 -34 244 -29 611 12 851 79 470 275
913 580 1307 99 129 379 404 515 506 594 444 1310 646 2027 572z"/>
</g>
</svg>
